<?xml version="1.0" encoding="UTF-8"?>
<svg width="800" height="600" xmlns="http://www.w3.org/2000/svg">
    <!-- 实体框样式定义 -->
    <defs>
        <style type="text/css">
            .entity { fill: #f0f8ff; stroke: #4682b4; stroke-width: 2; }
            .title { font-family: Arial; font-size: 16px; font-weight: bold; }
            .attribute { font-family: Arial; font-size: 14px; }
            .pk { text-decoration: underline; }
            .relationship { font-family: Arial; font-size: 14px; fill: #333; }
            .relation-line { stroke: #666; stroke-width: 2; fill: none; }
            .cardinality { font-family: Arial; font-size: 12px; fill: #666; }
        </style>
    </defs>

    <!-- Users实体 -->
    <g transform="translate(100,100)">
        <rect width="200" height="180" class="entity" rx="10" ry="10"/>
        <text x="100" y="30" text-anchor="middle" class="title">Users</text>
        <line x1="20" y1="40" x2="180" y2="40" stroke="#4682b4" stroke-width="1"/>
        <text x="30" y="60" class="attribute pk">user_id (PK)</text>
        <text x="30" y="85" class="attribute">username</text>
        <text x="30" y="110" class="attribute">password</text>
        <text x="30" y="135" class="attribute">phone</text>
        <text x="30" y="160" class="attribute">create_time</text>
    </g>

    <!-- UserRole实体 -->
    <g transform="translate(500,100)">
        <rect width="200" height="140" class="entity" rx="10" ry="10"/>
        <text x="100" y="30" text-anchor="middle" class="title">UserRole</text>
        <line x1="20" y1="40" x2="180" y2="40" stroke="#4682b4" stroke-width="1"/>
        <text x="30" y="60" class="attribute pk">role_id (PK)</text>
        <text x="30" y="85" class="attribute">role_name</text>
        <text x="30" y="110" class="attribute">description</text>
    </g>

    <!-- UserToken实体 -->
    <g transform="translate(100,400)">
        <rect width="200" height="140" class="entity" rx="10" ry="10"/>
        <text x="100" y="30" text-anchor="middle" class="title">UserToken</text>
        <line x1="20" y1="40" x2="180" y2="40" stroke="#4682b4" stroke-width="1"/>
        <text x="30" y="60" class="attribute pk">token_id (PK)</text>
        <text x="30" y="85" class="attribute">user_id (FK)</text>
        <text x="30" y="110" class="attribute">token</text>
        <text x="30" y="135" class="attribute">expire_time</text>
    </g>

    <!-- 关系线 -->
    <!-- Users 和 UserRole 多对多关系 -->
    <path d="M300,150 L500,150" class="relation-line"/>
    <text x="400" y="130" text-anchor="middle" class="relationship">拥有</text>
    <text x="320" y="140" class="cardinality">N</text>
    <text x="480" y="140" class="cardinality">M</text>

    <!-- Users 和 UserToken 一对多关系 -->
    <path d="M200,280 L200,400" class="relation-line"/>
    <text x="160" y="340" text-anchor="middle" class="relationship">持有</text>
    <text x="190" y="300" class="cardinality">1</text>
    <text x="190" y="380" class="cardinality">N</text>
</svg>